<?xml version="1.0" encoding="UTF-8"?><svg id="Layer_1" xmlns="http://www.w3.org/2000/svg" viewBox="0 0 512 512"><defs><style>.cls-1{fill:#005833;stroke-width:0px;}</style></defs><g id="Elipse_7"><path class="cls-1" d="m256,482.29248c-29.32227,0-58.64453-5.77979-86.55176-17.33887-55.81348-23.11865-99.2832-66.58887-122.40137-122.40234-23.11914-55.81348-23.11914-117.28906,0-173.10254s66.58887-99.2832,122.40234-122.40234c55.8125-23.11816,117.28809-23.11816,173.10254,0,55.81348,23.11865,99.2832,66.58887,122.40137,122.40234,23.11914,55.81348,23.11914,117.28906,0,173.10254s-66.58887,99.2832-122.40234,122.40234c-27.90625,11.55908-57.22852,17.33887-86.55078,17.33887Zm0-443.58008c-28.15918,0-56.30762,5.54834-83.10742,16.64893C62.26074,101.18701,9.53613,228.47461,55.36133,339.10693c22.19922,53.59277,63.93848,95.33301,117.53125,117.53174,26.79297,11.09766,54.95508,16.64746,83.10742,16.64893,28.15918.00146,56.30762-5.54834,83.10742-16.64893,110.63184-45.82568,163.35645-173.11328,117.53125-283.74561-22.19922-53.59277-63.93848-95.33301-117.53125-117.53174-26.79297-11.09766-54.95508-16.64893-83.10742-16.64893Z"/></g><path id="Trazado_993" class="cls-1" d="m316.67479,157.4171h-121.35241c-20.85206-.09273-37.83215,16.73621-37.92489,37.58887v121.68782c-.08792,20.85809,16.75006,37.83757,37.60814,37.92489.10598.0006.21076.0006.31674,0h121.35241c20.85809.0819,37.83336-16.76029,37.91525-37.61838v-121.65832c.09273-20.85267-16.73681-37.83215-37.58887-37.92489-.10839-.0006-.21799-.0006-.32638,0m10.95113,22.75132h4.21281v33.71208h-33.70245v-33.71208h29.48964Zm-99.42968,55.61494c10.96317-15.35723,32.30059-18.91969,47.65842-7.95592,3.07349,2.19432,5.7616,4.88242,7.95592,7.95592,4.33685,5.85554,6.69617,12.9389,6.73832,20.2252,0,19.07083-15.4602,34.53104-34.53104,34.53104s-34.53104-15.4602-34.53104-34.53104c.04577-7.2869,2.40869-14.37087,6.74796-20.2252m107.01707,80.90141c-.112,10.19179-8.34612,18.42651-18.53851,18.53851h-121.35241c-10.19239-.112-18.42651-8.34673-18.53851-18.53851v-80.90141h29.48964c-11.54848,27.45911,1.35128,59.08105,28.81039,70.62893,27.45911,11.54848,59.08045-1.35068,70.62893-28.80979,5.6243-13.37247,5.6243-28.44668,0-41.81914h29.48964l.01084,80.90141Z"/></svg>