<?xml version="1.0" encoding="UTF-8"?><svg id="Layer_1" xmlns="http://www.w3.org/2000/svg" viewBox="0 0 512 512"><defs><style>.cls-1{fill:#005833;stroke-width:0px;}</style></defs><g id="Elipse_6"><path class="cls-1" d="m256,482.29248c-29.32227,0-58.64453-5.77979-86.55127-17.33887-55.81348-23.11865-99.2832-66.58887-122.40234-122.40234-23.11865-55.81348-23.11865-117.28906,0-173.10254,23.11865-55.81348,66.58887-99.2832,122.40234-122.40234l1.72217,4.15771-1.72217-4.15771c55.81348-23.11816,117.28906-23.11816,173.10254,0,55.81348,23.11865,99.2832,66.58887,122.40234,122.40234,23.11865,55.81348,23.11865,117.28906,0,173.10254s-66.58887,99.2832-122.40234,122.40234c-27.90674,11.55908-57.229,17.33887-86.55127,17.33887Zm0-443.58008c-28.15869,0-56.30762,5.54834-83.10693,16.64893-53.59277,22.19922-95.33301,63.93896-117.53174,117.53173-22.19873,53.59229-22.19873,112.62158,0,166.21387,22.19922,53.59277,63.93896,95.33301,117.53174,117.53174,26.79297,11.09766,54.95459,16.64746,83.10693,16.64893,28.15869.00146,56.30762-5.54834,83.10693-16.64893,53.59277-22.19922,95.33301-63.93896,117.53174-117.53174,22.19873-53.59229,22.19873-112.62158,0-166.21387-22.19922-53.59277-63.93896-95.33301-117.53174-117.53174-26.79297-11.09766-54.95459-16.64893-83.10693-16.64893Z"/></g><path class="cls-1" d="m361.16044,351.18036h-3.49527c-19.39904,0-38.79837-.0492-58.19676.06232-2.42041.01388-3.84326-.77322-5.27144-2.65441-15.6498-20.61381-31.388-41.16047-47.10695-61.72172-.53666-.702-1.12336-1.36571-1.80851-2.19461-5.38761,6.15528-10.63007,12.14292-15.87057,18.1323-13.69219,15.64884-27.37751,31.30369-41.09712,46.92843-.54708.62306-1.4129,1.36764-2.1362,1.37402-10.18282.08969-20.36668.06097-31.29161.06097,25.34745-28.98044,50.28943-57.4973,75.41946-86.22915-26.39498-34.50926-52.76507-68.98599-79.47721-103.9099,1.397-.0686,2.32145-.15325,3.24594-.15361,20.05663-.00761,40.11341.02864,60.16969-.05492,2.19641-.00915,3.56653.65562,4.88843,2.41505,14.11515,18.78681,28.3141,37.51064,42.49385,56.24887.4854.64144,1.01071,1.25268,1.71202,2.11816,2.28655-2.57528,4.46364-4.99403,6.60481-7.44418,15.08874-17.26605,30.16101-34.54652,45.28588-51.78083.62542-.71263,1.71729-1.43097,2.59902-1.43993,9.78063-.09944,19.5627-.06094,29.34439-.04789.29252.00039.58486.12976,1.25306.28795-23.48022,26.8485-46.76823,53.47721-70.222,80.2955,27.54011,36.42076,55.02376,72.76685,82.95708,109.7076Zm-172.71242-171.95976c.6729.96891.97979,1.4511,1.32581,1.90333,37.14355,48.54347,74.33839,97.04795,111.34246,145.69752,2.88749,3.7962,4.93589,5.11892,10.50832,5.11892,4.56468,0,7.27283-.08489,11.34441-.08489-.84213-1.17909-1.33927-1.91115-1.87225-2.61613-17.68775-23.3958-35.3745-46.79237-53.07077-70.18172-19.6791-26.01008-39.3633-52.0163-59.07204-78.00391-.55284-.72899-1.3978-1.73552-2.12706-1.75292-5.96457-.14235-11.93402-.08021-18.37889-.08021Z"/></svg>